# xmcd
#
# Track frame offsets:
#	150
#	15579
#	32693
#	52983
#	67043
#	91469
#	105841
#	120188
#	141022
#	158889
#
# Disc length: 2323 seconds
#
# Revision: 0
# Processed by: cddbd v1.5.1PL0 Copyright (c) Steve Scherf et al.
# Submitted via: dBpowerAMP V4.0
#
DISCID=7209110a
DTITLE=Doxies - Tractor Crash
DYEAR=2002
DGENRE=Country
TTITLE0=Rest Assured
TTITLE1=East To Washington
TTITLE2=Black T-A
TTITLE3=Live Free, Live Easy
TTITLE4=Banks Of The Hennepin
TTITLE5=Stood Off The Devil
TTITLE6=Twelve Shots
TTITLE7=You Won't Understand
TTITLE8=House Is Burning Down
TTITLE9=I've Said Alot Of Things
EXTD=
EXTT0=
EXTT1=
EXTT2=
EXTT3=
EXTT4=
EXTT5=
EXTT6=
EXTT7=
EXTT8=
EXTT9=
PLAYORDER=
